# xmcd
#
# Track frame offsets:
#	150
#	17475
#	29755
#	48862
#	61450
#	73055
#	93372
#	109275
#	123262
#	136862
#	150260
#	166070
#	180857
#	201175
#	217780
#	228447
#	240732
#	252967
#
# Disc length: 3566
#
# Revision: 1
# Processed by: cddbd v1.5.1PL0 Copyright (c) Steve Scherf et al.
# Submitted via: OrangeCD 5.1
# Normalized: r0:DSETVAR1
#
DISCID=e60dec12
DTITLE=Various Artist - Double Shots of Country - Volume 2
DYEAR=1995
DGENRE=Country
TTITLE0=Clint Black - Burn One Down
TTITLE1=Clint Black - A Good Run Of Bad Luck
TTITLE2=Lee Kernaghan - Cause I'm Country
TTITLE3=Lee Kernaghan - Cobar Line
TTITLE4=Steve Earle - Guitar Town
TTITLE5=Steve Earle - Copperhead Road
TTITLE6=Alan Jackson - Tonight I Climbed The Wall
TTITLE7=Alan Jackson - Ace Of Hearts
TTITLE8=Linda Davis - He's In Dallas
TTITLE9=Linda Davis - When You Took Your Love Away
TTITLE10=Alabama - Give Me One More Shot
TTITLE11=Alabama - We Can't Love Like This Anymore
TTITLE12=Todd Snider - Alright Guy
TTITLE13=Todd Snider - Trouble
TTITLE14=George Jones - Never Bit A Bullet Like This
TTITLE15=George Jones - Hello Darlin'
TTITLE16=Mac McAnally - Down The Road
TTITLE17=Mac McAnally - Take It Easy
EXTD=
EXTT0=
EXTT1=
EXTT2=
EXTT3=
EXTT4=
EXTT5=
EXTT6=
EXTT7=
EXTT8=
EXTT9=
EXTT10=
EXTT11=
EXTT12=
EXTT13=
EXTT14=
EXTT15=
EXTT16=
EXTT17=
PLAYORDER=
